<svg xmlns="http://www.w3.org/2000/svg" id="Capa_1" style="enable-background:new 0 0 45.944 45.943;" viewBox="0 0 45.944 45.943" x="0px" y="0px" width="45.944px" height="45.943px" xmlns:xlink="http://www.w3.org/1999/xlink" version="1.1" xmlns:xml="http://www.w3.org/XML/1998/namespace" xml:space="preserve">
<g>
	<path d="M 43.574 6.327 L 23.629 0.099 C 23.415 0.032 23.193 0 22.971 0 s -0.443 0.032 -0.658 0.099 L 2.369 6.327 c -0.938 0.294 -1.567 1.168 -1.548 2.15 C 1.312 34.409 13.329 41.51 21.999 45.68 c 0.117 0.055 0.538 0.264 0.956 0.264 c 0.43 0 0.856 -0.207 0.976 -0.264 c 8.669 -4.17 20.7 -11.271 21.191 -37.204 C 45.141 7.495 44.511 6.621 43.574 6.327 Z M 33.434 32.04 l -1.079 1.079 c -0.438 0.438 -1.147 0.438 -1.584 0 l -2.931 -2.932 l -1.175 1.174 c -0.146 0.146 -0.343 0.228 -0.55 0.228 c -0.206 0 -0.405 -0.082 -0.55 -0.228 l -0.428 -0.428 c -0.305 -0.305 -0.305 -0.797 0 -1.101 l 0.962 -0.961 l -3.129 -2.597 l -3.143 2.597 l 0.969 0.961 c 0.304 0.304 0.308 0.796 0.003 1.101 l -0.426 0.428 c -0.146 0.146 -0.343 0.228 -0.549 0.228 c -0.207 0 -0.403 -0.082 -0.55 -0.228 l -1.173 -1.174 l -2.932 2.932 c -0.437 0.438 -1.147 0.438 -1.584 0 l -1.079 -1.079 c -0.21 -0.209 -0.328 -0.495 -0.328 -0.792 s 0.118 -0.582 0.328 -0.792 l 2.932 -2.933 l -1.174 -1.174 c -0.304 -0.303 -0.304 -0.795 0 -1.099 l 0.428 -0.429 c 0.304 -0.303 0.796 -0.303 1.1 0 l 1.221 1.221 l 2.441 -2.943 l -6.211 -5.154 c -0.267 -0.222 -0.442 -0.535 -0.491 -0.879 l -0.515 -3.613 c -0.062 -0.436 0.084 -0.875 0.396 -1.186 s 0.751 -0.457 1.187 -0.395 l 3.625 0.522 c 0.343 0.049 0.641 0.224 0.862 0.491 l 4.655 5.602 l 4.656 -5.602 c 0.222 -0.267 0.533 -0.442 0.876 -0.491 l 3.625 -0.522 c 0.437 -0.063 0.875 0.083 1.188 0.395 c 0.312 0.312 0.458 0.75 0.396 1.186 l -0.515 3.613 c -0.049 0.344 -0.224 0.657 -0.491 0.879 l -6.21 5.154 l 2.441 2.943 l 1.221 -1.221 c 0.303 -0.303 0.796 -0.303 1.1 0 l 0.429 0.429 c 0.303 0.304 0.303 0.796 0 1.099 l -1.174 1.174 l 2.931 2.933 c 0.21 0.21 0.329 0.495 0.329 0.792 S 33.644 31.831 33.434 32.04 Z" />
</g>
<g>
</g>
<g>
</g>
<g>
</g>
<g>
</g>
<g>
</g>
<g>
</g>
<g>
</g>
<g>
</g>
<g>
</g>
<g>
</g>
<g>
</g>
<g>
</g>
<g>
</g>
<g>
</g>
<g>
</g>
</svg>