<svg xmlns="http://www.w3.org/2000/svg" id="Capa_1" style="enable-background:new 0 0 45.4 45.4;" viewBox="0 0 45.4 45.4" x="0px" y="0px" width="45.4px" height="45.4px" xmlns:xlink="http://www.w3.org/1999/xlink" version="1.1" xmlns:xml="http://www.w3.org/XML/1998/namespace" xml:space="preserve">
<g>
	<path style="fill: #000000;" d="M 23.383 0.104 c -0.445 -0.139 -0.922 -0.139 -1.367 0 L 2.391 6.232 C 1.417 6.537 0.763 7.446 0.784 8.467 c 0.51 25.546 12.355 32.583 20.921 36.707 c 0.629 0.303 1.361 0.303 1.99 0 c 8.566 -4.123 20.412 -11.16 20.92 -36.706 c 0.021 -1.019 -0.635 -1.931 -1.607 -2.234 L 23.383 0.104 Z M 31.23 21.648 c 0 0.932 -0.755 1.687 -1.687 1.687 h -4.211 v 4.13 c 0 0.93 -0.754 1.686 -1.687 1.686 h -1.958 c -0.931 0 -1.687 -0.754 -1.687 -1.686 v -4.13 h -4.129 c -0.932 0 -1.687 -0.755 -1.687 -1.687 v -2.039 c 0 -0.931 0.755 -1.687 1.687 -1.687 h 4.129 v -4.13 c 0 -0.931 0.755 -1.687 1.687 -1.687 h 1.958 c 0.933 0 1.687 0.755 1.687 1.687 v 4.13 h 4.211 c 0.931 0 1.687 0.755 1.687 1.687 V 21.648 Z" />
</g>
<g>
</g>
<g>
</g>
<g>
</g>
<g>
</g>
<g>
</g>
<g>
</g>
<g>
</g>
<g>
</g>
<g>
</g>
<g>
</g>
<g>
</g>
<g>
</g>
<g>
</g>
<g>
</g>
<g>
</g>
</svg>